<svg width="89" height="84" viewBox="0 0 89 84" fill="none" xmlns="http://www.w3.org/2000/svg">
<g clip-path="url(#clip0_35_415)">
<path d="M83.8519 5.5298e-05C84.1158 0.0730221 84.3796 0.145989 84.645 0.215915C87.2077 0.895419 88.9925 3.16195 88.994 5.84196C89.0031 24.0776 89.0046 42.3132 88.994 60.5473C88.9925 63.7928 86.5238 66.2919 83.2545 66.3725C81.3377 66.4196 79.421 66.3847 77.5028 66.3862C77.2298 66.3862 76.9584 66.3862 76.5929 66.3862C76.5929 66.9851 76.599 67.5065 76.5914 68.0294C76.5475 71.3844 73.9226 74.0416 70.5759 74.0781C67.9268 74.107 65.2776 74.107 62.63 74.0781C59.3561 74.0416 56.7404 71.4482 56.6236 68.1647C56.6039 67.6114 56.6206 67.0565 56.6206 66.3877C55.6198 66.3877 54.672 66.3877 53.7227 66.3877C52.9403 66.3877 52.1578 66.4075 51.3769 66.3786C50.0758 66.3284 49.1645 65.4254 49.1281 64.1896C49.0902 62.9218 49.9848 61.885 51.3086 61.8592C53.8804 61.8075 56.4553 61.806 59.0271 61.8637C60.313 61.8926 61.1424 62.8564 61.1622 64.1561C61.1804 65.3449 61.1591 66.5336 61.1697 67.7224C61.1804 68.9506 61.7596 69.5283 62.9894 69.5313C65.4111 69.5374 67.8328 69.5374 70.2544 69.5313C71.4964 69.5283 72.0514 68.9689 72.0589 67.7239C72.065 66.6112 72.0559 65.4984 72.062 64.3857C72.0711 62.7621 72.9673 61.847 74.5943 61.8379C77.3193 61.8242 80.0427 61.8364 82.7677 61.8318C84.0839 61.8303 84.46 61.4396 84.46 60.1004C84.46 42.1688 84.46 24.2372 84.46 6.30408C84.46 4.98612 84.0566 4.57568 82.7495 4.57568C61.8627 4.57416 40.9744 4.57416 20.0877 4.57568C18.7411 4.57568 18.3408 4.98308 18.3408 6.35425C18.3393 12.6264 18.3423 18.8985 18.3347 25.1706C18.3347 25.5719 18.3302 25.9914 18.218 26.3684C17.9268 27.3489 16.9715 27.9752 15.9585 27.9205C14.9729 27.8673 14.1252 27.1802 13.9008 26.2043C13.8174 25.8394 13.8022 25.4533 13.8022 25.0763C13.7962 18.8802 13.7977 12.6841 13.7992 6.4865C13.7992 2.95521 15.3656 0.953184 18.7957 0.0882235C18.8397 0.0775825 18.8731 0.028938 18.911 -0.00146484C40.5559 5.5298e-05 62.2039 5.5298e-05 83.8519 5.5298e-05Z" fill="white"/>
<path d="M46.0951 46.9572C46.2377 51.77 46.036 56.5584 45.0063 61.2861C42.8212 71.319 36.8936 78.2448 27.6285 82.4084C26.4578 82.9344 25.2629 83.4224 24.0468 83.8252C23.5297 83.997 22.8655 84.076 22.3681 83.9058C17.1533 82.1181 12.3994 79.5399 8.52198 75.5222C4.50354 71.36 2.21379 66.3208 1.05375 60.7114C0.287975 57.0069 0.00592672 53.2521 -0.000138843 49.4791C-0.00620441 46.115 0.0680987 42.751 0.11359 39.3869C0.133304 37.8424 1.00978 37.0276 2.57166 36.9151C4.75526 36.757 6.95555 36.6522 9.1073 36.2828C13.7035 35.4923 17.6476 33.3306 21.0428 30.1414C22.6092 28.6699 23.5797 28.6699 25.1295 30.1323C29.3071 34.0755 34.2794 36.228 39.9719 36.7373C41.1759 36.8452 42.3875 36.8787 43.5976 36.9243C45.1898 36.9851 46.0769 37.85 46.089 39.4447C46.1072 41.9483 46.0951 44.452 46.0951 46.9572ZM4.59452 41.4619C4.59452 43.3149 4.61121 45.1041 4.59149 46.8934C4.546 50.7895 4.64457 54.6719 5.2587 58.5346C6.70231 67.6129 11.5259 74.1632 19.8615 77.9894C23.8588 79.8242 22.2984 79.8059 26.2562 78.0213C31.28 75.7563 35.35 72.3481 38.0188 67.4213C40.2297 63.3428 41.2078 58.9131 41.4292 54.3375C41.6293 50.1997 41.5596 46.0497 41.6036 41.9058C41.6051 41.7644 41.5581 41.6215 41.5293 41.4558C34.6297 41.1077 28.4216 38.9947 23.1354 34.4343C17.825 38.9962 11.6382 41.1016 4.59452 41.4619Z" fill="white"/>
<path d="M71.9619 49.9048C71.9619 38.7317 71.9619 27.6894 71.9619 16.5954C58.2264 16.5954 44.5243 16.5954 30.7373 16.5954C30.7373 16.8903 30.7373 17.1609 30.7373 17.4315C30.7373 19.733 30.7449 22.0345 30.7343 24.3344C30.7267 25.7649 29.7956 26.7378 28.4718 26.7332C27.1541 26.7287 26.2094 25.7512 26.2003 24.3223C26.1851 21.5906 26.176 18.8604 26.2018 16.1287C26.2245 13.7026 27.9623 11.9924 30.387 11.9924C44.3863 11.9863 58.3841 11.9879 72.3835 11.9924C74.8385 11.9939 76.5687 13.7284 76.5702 16.2047C76.5778 27.5587 76.5778 38.9141 76.5687 50.2681C76.5672 52.6866 74.834 54.4439 72.4183 54.4515C65.9873 54.4713 59.5548 54.4621 53.1238 54.4545C51.9183 54.453 51.0342 53.8358 50.737 52.8386C50.461 51.9113 50.7537 50.8427 51.5801 50.3623C52.0714 50.0765 52.7113 49.926 53.286 49.923C59.1878 49.8926 65.0896 49.9048 70.9929 49.9048C71.2901 49.9048 71.5874 49.9048 71.9619 49.9048Z" fill="white"/>
<path d="M58.6764 40.7368C54.0939 40.7353 50.5137 37.0672 50.5137 32.373C50.5152 27.9813 54.2501 24.3254 58.7082 24.3558C63.1983 24.3847 66.8315 28.033 66.8513 32.5296C66.8725 37.0444 63.1922 40.7383 58.6764 40.7368ZM55.0613 32.5311C55.0158 34.5194 56.5974 36.146 58.6082 36.1794C60.628 36.2129 62.2869 34.5985 62.3082 32.5767C62.3294 30.6051 60.719 28.9527 58.7371 28.9116C56.7324 28.8721 55.1083 30.4698 55.0613 32.5311Z" fill="white"/>
<path d="M20.5893 57.6316C20.8471 57.3321 21.0761 57.0707 21.3005 56.8077C23.5766 54.1474 26.1454 51.8094 29.0159 49.8105C29.9879 49.1325 31.0509 49.1842 31.8743 49.8941C32.631 50.5477 32.9161 51.6164 32.4687 52.5026C32.2625 52.9115 31.9213 53.3022 31.5468 53.5682C28.0227 56.0856 25.0126 59.1046 22.5136 62.6465C21.4097 64.2108 19.5294 64.1591 18.5392 62.5432C17.5975 61.0078 16.3919 59.7446 14.8558 58.8082C14.0203 58.2989 13.4865 57.6057 13.526 56.5933C13.5927 54.9029 15.4124 53.8403 16.8757 54.7236C17.9872 55.3955 18.9698 56.2847 20.0055 57.0843C20.2011 57.2333 20.3664 57.4203 20.5893 57.6316Z" fill="white"/>
</g>
<defs>
<clipPath id="clip0_35_415">
<rect width="89" height="84" fill="white"/>
</clipPath>
</defs>
</svg>
