<svg width="85" height="85" viewBox="0 0 85 85" fill="none" xmlns="http://www.w3.org/2000/svg">
<g clip-path="url(#clip0_35_409)">
<path d="M84.9999 43.3722C84.804 44.8394 84.6883 46.3235 84.3983 47.7722C81.1296 64.0575 71.5798 74.8421 55.8135 80.1135C52.5649 81.2004 49.1868 81.7423 45.7608 81.7824C44.8167 81.7931 44.0763 82.0425 43.285 82.4906C35.7667 86.7582 26.4158 85.4973 20.1655 79.336C15.308 74.5496 10.4814 69.7292 5.69645 64.8704C-1.97459 57.0818 -1.87896 45.2412 5.86767 37.5142C6.62968 36.7537 7.38244 35.9823 8.15834 35.2357C9.39699 34.0425 10.9673 34.0379 12.1952 35.2526C14.657 37.6866 17.1066 40.1314 19.5407 42.5916C20.7485 43.8109 20.7254 45.3782 19.513 46.6191C18.3483 47.8107 17.1637 48.9823 15.9898 50.1662C14.0986 52.0752 14.0801 54.5524 15.9651 56.4383C20.187 60.6644 24.4151 64.8858 28.6494 69.0996C30.5097 70.9501 33.004 70.9439 34.8751 69.0965C36.0613 67.9264 37.2244 66.7317 38.4106 65.5617C39.7032 64.2854 41.2612 64.2823 42.5538 65.5663C44.9941 67.9849 47.4252 70.4128 49.8485 72.8484C51.1273 74.1354 51.1118 75.6842 49.8315 76.9851C49.2978 77.527 48.7502 78.0536 48.2088 78.5863C48.2396 78.6571 48.272 78.7264 48.3029 78.7972C49.8223 78.5185 51.3694 78.3399 52.858 77.9443C67.8468 73.9522 77.5818 64.5148 81.2484 49.4672C86.2154 29.0852 73.363 8.5245 52.8611 3.91663C38.9273 0.783654 26.7999 4.55093 16.65 14.5996C16.4865 14.7612 16.3369 14.9398 16.1672 15.0953C15.5147 15.6957 14.6771 15.7127 14.1002 15.1461C13.5279 14.5842 13.4816 13.6912 14.1156 13.0862C15.672 11.6005 17.1837 10.0471 18.879 8.73388C26.9094 2.51411 36.0289 -0.39564 46.1958 0.0431315C64.0938 0.815985 79.9959 14.0992 83.8969 31.5777C84.3582 33.6438 84.5494 35.7699 84.8672 37.8668C84.9042 38.1146 84.9551 38.3594 84.9999 38.6057C84.9999 40.1945 84.9999 41.7834 84.9999 43.3722Z" fill="white"/>
<path d="M60.7389 43.0781C61.9421 43.0781 63.065 43.075 64.1865 43.0797C65.3094 43.0843 65.965 43.6308 65.9557 44.5438C65.9465 45.4506 65.294 45.9725 64.1556 45.9755C63.0573 45.9786 61.959 45.9755 60.7481 45.9755C60.7481 47.2041 60.7481 48.3711 60.7481 49.5381C60.7481 49.9737 60.7651 50.4094 60.7373 50.8436C60.6818 51.7442 60.1034 52.3077 59.2766 52.2954C58.4575 52.2831 57.8975 51.6934 57.8775 50.7913C57.8605 49.9984 57.8728 49.204 57.8728 48.4096C57.8728 47.6429 57.8728 46.8777 57.8728 46.0156C57.5705 46.0002 57.3021 45.9771 57.0337 45.9771C53.4165 45.974 49.7992 45.9694 46.182 45.9802C45.4678 45.9817 44.8507 45.8493 44.5037 45.1519C44.152 44.4437 44.4528 43.8848 44.9001 43.3321C49.2439 37.9483 53.5831 32.5599 57.916 27.1684C58.3958 26.5711 58.9202 26.1231 59.747 26.3894C60.4504 26.6157 60.7373 27.1392 60.7373 28.1814C60.7404 32.817 60.7389 37.4526 60.7389 42.0882C60.7389 42.393 60.7389 42.6948 60.7389 43.0781ZM57.8219 31.8902C54.7662 35.6837 51.8415 39.3139 48.8413 43.0396C51.9171 43.0396 54.8464 43.0396 57.8219 43.0396C57.8219 39.3817 57.8219 35.7622 57.8219 31.8902Z" fill="white"/>
<path d="M32.8237 49.4303C33.3296 49.4303 33.635 49.4303 33.9389 49.4303C36.8898 49.4303 39.8407 49.4195 42.7915 49.4379C43.8065 49.4441 44.3973 50.0368 44.3726 50.9252C44.3495 51.7688 43.7495 52.303 42.7715 52.3046C38.4092 52.3107 34.0469 52.3015 29.6846 52.3138C28.9766 52.3154 28.4105 52.1137 28.1236 51.4378C27.8366 50.765 28.0773 50.2077 28.5585 49.6966C32.3162 45.6984 36.0599 41.6894 39.8191 37.6943C41.1117 36.3195 41.6038 34.7106 41.2027 32.8847C40.5641 29.9811 37.9634 28.5601 35.0665 29.47C32.7342 30.2028 31.1176 32.2289 30.9155 34.6691C30.8986 34.8738 30.894 35.0801 30.8616 35.2803C30.732 36.0639 30.1103 36.5997 29.3807 36.5658C28.6002 36.5288 28.0418 35.9269 28.0125 35.0909C27.8181 29.7194 33.3944 25.2055 38.5912 26.5264C44.0919 27.9243 46.0926 34.9015 42.2162 39.3185C40.4592 41.3214 38.5866 43.2243 36.7648 45.1703C35.6789 46.3311 34.5883 47.4873 33.5039 48.6497C33.3142 48.8498 33.1414 49.0623 32.8237 49.4303Z" fill="white"/>
<path d="M11.7445 20.5915C11.7198 20.6884 11.709 20.904 11.6165 21.078C11.0627 22.1156 10.512 23.1563 9.91504 24.1678C9.51861 24.8391 8.69798 25.0331 8.03314 24.6867C7.36677 24.3387 7.04592 23.5566 7.39299 22.8561C7.92362 21.78 8.50825 20.7269 9.12218 19.6954C9.49701 19.0642 10.1325 18.9103 10.8051 19.1335C11.4221 19.3383 11.7383 19.8201 11.7445 20.5915Z" fill="white"/>
</g>
<defs>
<clipPath id="clip0_35_409">
<rect width="85" height="85" fill="white"/>
</clipPath>
</defs>
</svg>
