<svg width="30" height="31" viewBox="0 0 30 31" fill="none" xmlns="http://www.w3.org/2000/svg">
<g filter="url(#filter0_d_11_994)">
<path d="M12.8143 5.96875C16.5604 5.96875 19.5955 9.00391 19.5955 12.75C19.5955 16.4961 16.5604 19.5312 12.8143 19.5312C9.06816 19.5312 6.03301 16.4961 6.03301 12.75C6.03301 9.00391 9.06816 5.96875 12.8143 5.96875ZM16.7518 13.5156V11.9844C16.7518 11.8203 16.5877 11.6562 16.4236 11.6562H13.908V9.14062C13.908 8.97656 13.7439 8.8125 13.5799 8.8125H12.0486C11.8572 8.8125 11.7205 8.97656 11.7205 9.14062V11.6562H9.20488C9.01348 11.6562 8.87676 11.8203 8.87676 11.9844V13.5156C8.87676 13.707 9.01348 13.8438 9.20488 13.8438H11.7205V16.3594C11.7205 16.5508 11.8572 16.6875 12.0486 16.6875H13.5799C13.7439 16.6875 13.908 16.5508 13.908 16.3594V13.8438H16.4236C16.5877 13.8438 16.7518 13.707 16.7518 13.5156Z" fill="white"/>
</g>
<defs>
<filter id="filter0_d_11_994" x="0.0332031" y="0.96875" width="29.5625" height="29.5625" filterUnits="userSpaceOnUse" color-interpolation-filters="sRGB">
<feFlood flood-opacity="0" result="BackgroundImageFix"/>
<feColorMatrix in="SourceAlpha" type="matrix" values="0 0 0 0 0 0 0 0 0 0 0 0 0 0 0 0 0 0 127 0" result="hardAlpha"/>
<feOffset dx="2" dy="3"/>
<feGaussianBlur stdDeviation="4"/>
<feComposite in2="hardAlpha" operator="out"/>
<feColorMatrix type="matrix" values="0 0 0 0 0 0 0 0 0 0 0 0 0 0 0 0 0 0 0.1 0"/>
<feBlend mode="normal" in2="BackgroundImageFix" result="effect1_dropShadow_11_994"/>
<feBlend mode="normal" in="SourceGraphic" in2="effect1_dropShadow_11_994" result="shape"/>
</filter>
</defs>
</svg>
