<svg width="13" height="15" viewBox="0 0 13 15" fill="none" xmlns="http://www.w3.org/2000/svg">
<path d="M6.1752 14.75C5.19082 14.75 4.4252 13.9844 4.4252 13H7.89785C7.89785 13.9844 7.13223 14.75 6.1752 14.75ZM12.0541 10.6758C12.2182 10.8398 12.3002 11.0586 12.3002 11.25C12.2729 11.7148 11.9447 12.125 11.3979 12.125H0.925195C0.37832 12.125 0.0501952 11.7148 0.0501952 11.25C0.0228515 11.0586 0.104883 10.8398 0.268945 10.6758C0.788476 10.1016 1.8002 9.25391 1.8002 6.4375C1.8002 4.33203 3.27676 2.63672 5.3002 2.19922V1.625C5.3002 1.16016 5.68301 0.75 6.1752 0.75C6.64004 0.75 7.02285 1.16016 7.02285 1.625V2.19922C9.04629 2.63672 10.5229 4.33203 10.5229 6.4375C10.5229 9.25391 11.5346 10.1016 12.0541 10.6758Z" fill="#0344B6"/>
</svg>
