<svg width="17" height="14" viewBox="0 0 17 14" fill="none" xmlns="http://www.w3.org/2000/svg">
<path d="M15.6938 11C15.9438 11 16.1938 11.25 16.1938 11.5V12.5C16.1938 12.7812 15.9438 13 15.6938 13H5.19375V13.5C5.19375 13.7812 4.94375 14 4.69375 14H3.69375C3.4125 14 3.19375 13.7812 3.19375 13.5V13H0.69375C0.4125 13 0.19375 12.7812 0.19375 12.5V11.5C0.19375 11.25 0.4125 11 0.69375 11H3.19375V10.5C3.19375 10.25 3.4125 10 3.69375 10H4.69375C4.94375 10 5.19375 10.25 5.19375 10.5V11H15.6938ZM15.6938 6C15.9438 6 16.1938 6.25 16.1938 6.5V7.5C16.1938 7.78125 15.9438 8 15.6938 8H13.1938V8.5C13.1938 8.78125 12.9438 9 12.6938 9H11.6938C11.4125 9 11.1938 8.78125 11.1938 8.5V8H0.69375C0.4125 8 0.19375 7.78125 0.19375 7.5V6.5C0.19375 6.25 0.4125 6 0.69375 6H11.1938V5.5C11.1938 5.25 11.4125 5 11.6938 5H12.6938C12.9438 5 13.1938 5.25 13.1938 5.5V6H15.6938ZM15.6938 1C15.9438 1 16.1938 1.25 16.1938 1.5V2.5C16.1938 2.78125 15.9438 3 15.6938 3H9.19375V3.5C9.19375 3.78125 8.94375 4 8.69375 4H7.69375C7.4125 4 7.19375 3.78125 7.19375 3.5V3H0.69375C0.4125 3 0.19375 2.78125 0.19375 2.5V1.5C0.19375 1.25 0.4125 1 0.69375 1H7.19375V0.5C7.19375 0.25 7.4125 0 7.69375 0H8.69375C8.94375 0 9.19375 0.25 9.19375 0.5V1H15.6938Z" fill="#555555"/>
</svg>
