<svg width="77" height="87" viewBox="0 0 77 87" fill="none" xmlns="http://www.w3.org/2000/svg">
<g clip-path="url(#clip0_35_404)">
<path d="M76.9836 26.3636C76.6175 34.4366 74.8822 42.2229 72.0156 49.7616C66.9437 63.0979 58.8034 74.1065 46.9244 82.2064C44.4931 83.8649 41.8706 85.2456 39.3384 86.7585C38.766 87.1006 38.2282 87.0601 37.6377 86.754C21.6705 78.4769 10.876 65.7169 4.67734 48.9781C2.35304 42.7002 0.84971 36.2241 0.214031 29.5634C0.0197118 27.5283 0.046826 25.4736 0.000129226 23.4265C-0.017947 22.6161 0.360146 22.2123 1.22479 21.9632C3.67562 21.2593 6.16109 20.656 8.56974 19.8305C17.5159 16.7628 25.5011 12.0382 32.489 5.68523C34.1686 4.15739 35.6494 2.41342 37.213 0.759511C38.1589 -0.241541 38.873 -0.273059 39.7828 0.777521C47.4155 9.57988 56.8964 15.6642 67.8009 19.6129C70.3571 20.5389 73.0189 21.1783 75.6354 21.9362C76.7395 22.2559 77.0077 22.5861 76.9971 23.7417C76.9926 24.2415 76.9851 24.7412 76.9821 25.2395C76.9821 25.6147 76.9836 25.9884 76.9836 26.3636ZM2.90136 24.363C2.90136 26.047 2.77633 27.6528 2.92395 29.2332C3.49787 35.3941 4.84906 41.3974 6.94439 47.2222C12.6986 63.224 22.7354 75.6403 37.8577 83.7808C38.2463 83.9909 38.5506 84.105 39.0161 83.8559C50.996 77.4533 60.0191 68.1752 66.2056 56.1371C70.1673 48.4288 72.6528 40.2523 73.7916 31.6766C74.1095 29.2842 74.1923 26.8619 74.3881 24.3946C67.3926 22.7331 60.8973 20.1892 54.8327 16.6023C48.7546 13.0078 43.1374 8.83547 38.5581 3.41748C28.7277 14.1139 16.7357 20.8901 2.90136 24.363Z" fill="white"/>
<path d="M72.2701 27.9199C69.9594 48.4557 61.9215 65.8728 44.5593 78.1871C42.9521 79.3278 41.2047 80.2688 39.5402 81.3329C38.8171 81.7951 38.186 81.7441 37.4479 81.3284C26.2436 75.0294 17.897 66.0454 12.1909 54.5971C8.15391 46.4957 5.73924 37.9199 4.85049 28.918C4.79476 28.3476 4.77668 27.7713 4.7571 27.198C4.72245 26.2075 5.01468 25.8007 5.99983 25.5276C10.2297 24.3554 14.3224 22.8261 18.2555 20.8825C25.3278 17.3871 31.775 13.0047 37.3921 7.44711C38.1317 6.71621 38.8623 6.72971 39.6155 7.45762C48.4653 16.0123 58.7958 22.0262 70.6553 25.415C72.1556 25.8443 72.3002 26.0664 72.2701 27.9199ZM7.56192 27.9334C7.56192 28.1795 7.54535 28.3792 7.56493 28.5758C8.19308 35.0939 9.67532 41.4153 12.0569 47.5162C17.189 60.6665 25.5462 71.1588 37.8184 78.4047C38.305 78.6929 38.6529 78.7199 39.1621 78.4213C49.0272 72.6206 56.4986 64.5701 61.7844 54.4861C66.0534 46.3411 68.5268 37.6588 69.4442 28.5232C69.4984 27.9844 69.2665 27.8629 68.8266 27.7308C59.0158 24.7862 50.184 20.015 42.2697 13.545C40.9787 12.4899 39.7481 11.3583 38.4782 10.2522C29.538 18.5562 19.2452 24.4665 7.56192 27.9334Z" fill="white"/>
<path d="M36.3992 32.3504C34.7708 29.2932 33.1906 26.3185 31.6014 23.3484C31.3303 22.8411 31.1526 22.3368 31.4614 21.789C31.7626 21.2562 32.2416 21.0566 32.8427 21.0566C36.6025 21.0611 40.3609 21.0521 44.1207 21.0626C45.4659 21.0656 46.0669 22.0532 45.4418 23.2403C43.9656 26.0454 42.4697 28.8399 40.983 31.6405C40.867 31.8581 40.7631 32.0832 40.638 32.3399C44.1629 33.6906 46.3742 36.4056 48.1487 39.5018C51.6178 45.5562 53.6529 52.0517 53.8201 59.0621C53.8427 60.0256 53.7146 61.0087 53.5294 61.9587C52.9253 65.0819 50.8948 66.967 47.7179 67.3452C46.5535 67.4832 45.371 67.5103 44.196 67.5178C40.4136 67.5388 36.6311 67.5358 32.8502 67.5193C31.725 67.5148 30.5907 67.5073 29.4775 67.3677C25.7945 66.9069 23.7217 64.7277 23.303 61.0417C22.9264 57.7114 23.4446 54.4696 24.2098 51.2518C25.1724 47.2011 26.6169 43.3304 28.7213 39.7254C29.2862 38.7574 29.9143 37.8164 30.5907 36.9219C32.1016 34.9198 33.8986 33.2449 36.3992 32.3504ZM38.49 64.8163C38.49 64.7968 38.49 64.7773 38.49 64.7577C39.6664 64.7577 40.8429 64.7698 42.0194 64.7547C43.7938 64.7322 45.5773 64.7908 47.3413 64.6347C49.3974 64.4531 50.473 63.4325 50.824 61.4139C51.0228 60.2688 51.1132 59.0771 51.0409 57.9185C50.714 52.6221 49.2061 47.6303 46.8849 42.8772C45.7174 40.4894 44.3226 38.2396 42.295 36.4566C39.7553 34.2234 37.1734 34.1469 34.7362 36.4761C33.4166 37.7368 32.2627 39.2317 31.2881 40.779C29.1717 44.1409 27.8491 47.8569 26.9167 51.705C26.2102 54.6227 25.689 57.5643 26.0039 60.5914C26.275 63.1954 27.349 64.3435 29.9354 64.6827C30.6283 64.7743 31.3318 64.8028 32.0308 64.8073C34.1833 64.8268 36.3374 64.8163 38.49 64.8163ZM34.9455 23.8122C36.1476 26.0679 37.2924 28.2171 38.502 30.4878C39.7237 28.1856 40.8595 26.0424 42.0419 23.8122C39.6408 23.8122 37.3768 23.8122 34.9455 23.8122Z" fill="white"/>
<path d="M43.1687 46.116C43.1687 47.186 42.6746 47.7789 41.9154 47.8434C41.1502 47.9094 40.5491 47.3451 40.4527 46.4687C40.3066 45.1479 39.4375 44.429 38.1661 44.5776C37.1523 44.6962 36.4564 45.6777 36.5468 46.8258C36.601 47.5102 36.9625 47.941 37.5967 48.1331C38.3619 48.3642 39.1467 48.5308 39.9089 48.7679C41.9485 49.3998 43.0181 50.65 43.1536 52.52C43.3118 54.6947 42.3327 56.4717 40.4301 57.3271C39.9556 57.5403 39.796 57.7939 39.8472 58.2787C39.8833 58.6239 39.8728 58.9781 39.8427 59.3262C39.7794 60.0511 39.1964 60.5824 38.4975 60.5839C37.7986 60.5854 37.083 60.0331 37.1734 59.3368C37.3376 58.0701 36.8285 57.4277 35.7409 56.8154C34.4876 56.1085 33.8986 54.8148 33.8293 53.3515C33.7856 52.4299 34.2632 51.8281 35.0449 51.7636C35.8825 51.6945 36.4398 52.2153 36.5423 53.1653C36.6703 54.351 37.541 55.1299 38.6436 55.0444C39.7704 54.9573 40.5341 53.9953 40.4467 52.7946C40.3985 52.1208 40.0777 51.6615 39.4269 51.4694C38.7084 51.2578 37.9778 51.0837 37.2593 50.8751C35.1157 50.2522 33.986 49.0006 33.8399 47.1035C33.6666 44.8538 34.6473 43.1113 36.6582 42.2093C37.0559 42.0307 37.1734 41.8251 37.1448 41.4289C37.1162 41.0312 37.1162 40.6289 37.1508 40.2327C37.2126 39.5423 37.7699 39.0441 38.4523 39.026C39.1678 39.0065 39.8984 39.5243 39.814 40.2177C39.6589 41.5039 40.1801 42.1688 41.2767 42.7946C42.5646 43.5255 43.0964 44.8613 43.1687 46.116Z" fill="white"/>
</g>
<defs>
<clipPath id="clip0_35_404">
<rect width="77" height="87" fill="white"/>
</clipPath>
</defs>
</svg>
