<svg width="15" height="14" viewBox="0 0 15 14" fill="none" xmlns="http://www.w3.org/2000/svg">
<path d="M3.33652 14H0.430274V4.65625H3.33652V14ZM1.86777 3.40625C0.961524 3.40625 0.211524 2.625 0.211524 1.6875C0.211524 0.78125 0.961524 0.03125 1.86777 0.03125C2.80527 0.03125 3.55527 0.78125 3.55527 1.6875C3.55527 2.625 2.80527 3.40625 1.86777 3.40625ZM14.1803 14H11.3053V9.46875C11.3053 8.375 11.274 7 9.77402 7C8.27402 7 8.05527 8.15625 8.05527 9.375V14H5.14902V4.65625H7.93027V5.9375H7.96152C8.36777 5.21875 9.30527 4.4375 10.7115 4.4375C13.649 4.4375 14.2115 6.375 14.2115 8.875V14H14.1803Z" fill="#777777"/>
</svg>
