<svg width="17" height="14" viewBox="0 0 17 14" fill="none" xmlns="http://www.w3.org/2000/svg">
<path d="M14.5976 3.75C14.5976 3.90625 14.5976 4.03125 14.5976 4.1875C14.5976 8.53125 11.3163 13.5 5.28506 13.5C3.41006 13.5 1.69131 12.9688 0.253809 12.0312C0.503809 12.0625 0.753809 12.0938 1.03506 12.0938C2.56631 12.0938 3.97256 11.5625 5.09756 10.6875C3.66006 10.6562 2.44131 9.71875 2.03506 8.40625C2.25381 8.4375 2.44131 8.46875 2.66006 8.46875C2.94131 8.46875 3.25381 8.40625 3.50381 8.34375C2.00381 8.03125 0.878809 6.71875 0.878809 5.125V5.09375C1.31631 5.34375 1.84756 5.46875 2.37881 5.5C1.47256 4.90625 0.910059 3.90625 0.910059 2.78125C0.910059 2.15625 1.06631 1.59375 1.34756 1.125C2.97256 3.09375 5.41006 4.40625 8.12881 4.5625C8.06631 4.3125 8.03506 4.0625 8.03506 3.8125C8.03506 2 9.50381 0.53125 11.3163 0.53125C12.2538 0.53125 13.0976 0.90625 13.7226 1.5625C14.4413 1.40625 15.1601 1.125 15.7851 0.75C15.5351 1.53125 15.0351 2.15625 14.3476 2.5625C15.0038 2.5 15.6601 2.3125 16.2226 2.0625C15.7851 2.71875 15.2226 3.28125 14.5976 3.75Z" fill="#777777"/>
</svg>
